HIERARCHY
ROOT ui
{
	 OFFSET 0 0 0
	 CHANNELS 3 XPosition YPosition Z Position
	 EndSite
	 {
	 OFFSET 0 -1 0
	 }
}
ROOT li
{
	 OFFSET 0 0 0
	 CHANNELS 3 XPosition YPosition Z Position
	 EndSite
	 {
	 OFFSET 0 -1 0
	 }
}
ROOT ul
{
	 OFFSET 0 0 0
	 CHANNELS 3 XPosition YPosition Z Position
	 EndSite
	 {
	 OFFSET 0 -1 0
	 }
}
ROOT ll
{
	 OFFSET 0 0 0
	 CHANNELS 3 XPosition YPosition Z Position
	 EndSite
	 {
	 OFFSET 0 -1 0
	 }
}
ROOT tt
{
	 OFFSET 0 0 0
	 CHANNELS 3 XPosition YPosition Z Position
	 EndSite
	 {
	 OFFSET 0 -1 0
	 }
}
ROOT tb
{
	 OFFSET 0 0 0
	 CHANNELS 3 XPosition YPosition Z Position
	 EndSite
	 {
	 OFFSET 0 -1 0
	 }
}
ROOT td
{
	 OFFSET 0 0 0
	 CHANNELS 3 XPosition YPosition Z Position
	 EndSite
	 {
	 OFFSET 0 -1 0
	 }
}
ROOT v
{
	 OFFSET 0 0 0
	 CHANNELS 3 XPosition YPosition Z Position
	 EndSite
	 {
	 OFFSET 0 -1 0
	 }
}
ROOT bn
{
	 OFFSET 0 0 0
	 CHANNELS 3 XPosition YPosition Z Position
	 EndSite
	 {
	 OFFSET 0 -1 0
	 }
}
MOTION
Frames: 10
Frame Time: 0.002
0.0013918650150299072	8.493300080299377E-4	0		0.4735143737792969	-2.581759765625	0		-0.9969063110351563	-0.010715740203857422	0		-0.6458825073242187	-2.275414306640625	0		0.9321100463867188	-0.8006378173828125	0		2.492588623046875	-0.39371829223632815	0		4.11713671875	0.017211053848266603	0		5.628724609375	0.2098168640136719	0		-0.27750448608398437	5.8948662109375	0		
0.006758045196533203	0.014881964683532714	0		0.4962322692871094	-2.569916748046875	0		-1.00270556640625	-0.007661929130554199	0		-0.6183026733398438	-2.26981396484375	0		0.9323663940429687	-0.8013883666992188	0		2.509196044921875	-0.3674847717285156	0		4.12443896484375	0.027826032638549804	0		5.62831103515625	0.23914601135253907	0		-0.3065628662109375	5.8733671875	0		
-0.0032411279678344726	0.004155724048614502	0		0.4848791198730469	-2.563541259765625	0		-1.0065958862304687	-0.011631489753723145	0		-0.6327460327148438	-2.266559814453125	0		0.9326401977539063	-0.80212841796875	0		2.49117919921875	-0.38271347045898435	0		4.13452685546875	0.02341393852233887	0		5.62550634765625	0.227066650390625	0		-0.30827569580078124	5.8734560546875	0		
-0.0030746378898620606	0.003291481971740723	0		0.5103524780273437	-2.56970703125	0		-1.0094717407226563	-0.015600698471069336	0		-0.6322392578125	-2.267518310546875	0		0.932927490234375	-0.8028524169921875	0		2.489569091796875	-0.37217514038085936	0		4.12369140625	0.023334867477416994	0		5.622712890625	0.2150107879638672	0		-0.30898867797851565	5.8725458984375	0		
-0.0028971519470214844	0.002449059009552002	0		0.4880177001953125	-2.56313232421875	0		-1.0003221435546874	-0.01872576332092285	0		-0.621845458984375	-2.2766015625	0		0.933224365234375	-0.8035562133789063	0		2.491935791015625	-0.3636790771484375	0		4.1177626953125	0.01619369125366211	0		5.6157236328125	0.21523699951171876	0		-0.3096805725097656	5.871658203125	0		
-0.0027107689380645754	0.0016329799890518189	0		0.5264248657226562	-2.574435546875	0		-1.0001326904296874	-0.019686519622802736	0		-0.6162701416015625	-2.27358154296875	0		0.9426738891601563	-0.7943700561523438	0		2.510099609375	-0.369397705078125	0		4.1399443359375	0.015651464462280273	0		5.61882958984375	0.23241575622558594	0		-0.3103455505371094	5.87079736328125	0		
0.004584333896636963	0.007744235992431641	0		0.4952323303222656	-2.55768212890625	0		-1.0058623657226562	-0.015525828361511231	0		-0.6157562866210937	-2.27445361328125	0		0.9399362182617188	-0.7979789428710937	0		2.5044482421875	-0.362743408203125	0		4.12994775390625	0.0025954999923706056	0		5.62539013671875	0.23045257568359376	0		-0.3109774169921875	5.86996826171875	0		
-0.0023170549869537356	9.419099986553193E-5	0		0.5357880249023438	-2.557945556640625	0		-1.0087032470703126	-0.01937051773071289	0		-0.6281610717773437	-2.269102294921875	0		0.9432870483398438	-0.7956481323242187	0		2.510595458984375	-0.37024365234375	0		4.137248046875	0.009298836708068848	0		5.61202587890625	0.23611552429199217	0		-0.3115700378417969	5.869173828125	0		
-0.0021122939586639402	-6.234880089759827E-4	0		0.4843976135253906	-2.552850341796875	0		-1.0084959716796875	-0.020217212677001953	0		-0.5926976318359375	-2.27240087890625	0		0.9346376953125	-0.7931160278320313	0		2.50494873046875	-0.3635539855957031	0		4.1413505859375	0.002055285930633545	0		5.61636181640625	0.21865814208984374	0		-0.44640460205078125	5.8493369140625	0		
-0.0019038710594177246	-0.0013043760061264037	0		0.5248101196289062	-2.561039794921875	0		-1.0033566284179687	-0.026089818954467773	0		-0.650223876953125	-2.27332958984375	0		0.94695458984375	-0.7928545532226563	0		2.5160009765625	-0.37808761596679685	0		4.139544921875	9.020540118217468E-4	0		5.62363427734375	0.21493299865722656	0		-0.2833352966308594	5.8872841796875	0		
